<svg xmlns="http://www.w3.org/2000/svg" viewBox="0 0 64 64" role="img" aria-label="Shield favicon">
  <defs>
    <linearGradient id="shieldGrad" x1="8" y1="6" x2="56" y2="58" gradientUnits="userSpaceOnUse">
      <stop offset="0" stop-color="#35f0d2" />
      <stop offset="1" stop-color="#2b0f2f" />
    </linearGradient>
  </defs>
  <rect width="64" height="64" rx="14" fill="#12091f" />
  <path d="M32 8 50 14v14c0 13-7.7 22.5-18 28-10.3-5.5-18-15-18-28V14L32 8z" fill="url(#shieldGrad)" stroke="#fff4f2" stroke-width="2" />
  <path d="M32 19c-5.6 0-10 4.5-10 10s4.4 10 10 10 10-4.5 10-10-4.4-10-10-10zm0 4.5a5.5 5.5 0 0 1 0 11 5.5 5.5 0 0 1 0-11z" fill="#fff4f2" fill-opacity="0.9" />
</svg>
